<?xml version="1.0" standalone="no"?>

<!DOCTYPE svg PUBLIC "-//W3C//DTD SVG 20010904//EN"

 "http://www.w3.org/TR/2001/REC-SVG-20010904/DTD/svg10.dtd">

<svg version="1.0" xmlns="http://www.w3.org/2000/svg"

 width="440.000000pt" height="440.000000pt" viewBox="0 0 440.000000 440.000000"

 preserveAspectRatio="xMidYMid meet">

<path fill="#181216" stroke="none" d="
M0 220

L0 0

L220 0

L440 0

L440 220

L440 440

L220 440

L0 440

L0 220

Z

"/>

<path fill="#483a2f" stroke="none" d="
M0 220

L0 0

L220 0

L440 0

L440 220

L440 440

L220 440

L0 440

L0 220

Z

M152 186

C155 186 159 184 161 184

C168 182 172 181 177 179

L183 177

L183 171

C183 164 186 155 190 152

C192 150 193 150 200 152

L203 152

L207 146

C209 142 213 135 216 129

C220 123 224 114 227 110

C230 106 233 101 235 100

C238 94 250 80 254 77

C260 73 261 71 260 67

C260 65 259 63 258 62

C256 59 247 54 244 54

C243 54 242 54 241 53

C238 50 212 48 195 48

C172 49 162 51 148 57

C143 58 138 60 137 61

C136 61 132 62 129 64

C126 65 123 66 122 66

C121 66 118 67 116 68

C108 71 99 72 91 70

C87 70 81 69 77 69

C70 69 70 68 68 65

C67 63 66 60 66 59

C65 58 64 55 62 52

C60 49 59 48 57 48

C52 48 50 50 50 57

C50 60 50 63 51 64

C51 65 53 67 53 69

C54 71 56 75 58 76

C61 80 63 83 67 93

C69 97 73 103 75 107

C79 112 85 120 89 125

C89 126 92 130 94 133

C96 136 99 141 101 143

C102 145 104 148 106 151

C109 155 114 165 121 179

C122 183 124 184 127 186

C132 188 143 189 152 186

Z

"/>

<path fill="#2f424a" stroke="none" d="
M0 220

L0 0

L220 0

L440 0

L440 220

L440 440

L220 440

L0 440

L0 220

Z

M174 219

L176 219

L176 217

L176 216

L178 216

L179 217

L180 215

C180 213 181 211 180 210

L180 208

L182 207

C183 206 184 205 184 203

C184 202 184 201 185 201

L186 200

L187 204

L187 208

L190 202

C192 199 193 196 193 195

L193 193

L191 194

L189 194

L189 193

C189 192 190 191 190 190

L191 189

L189 185

C183 176 182 166 186 157

C189 151 193 149 197 151

C199 152 201 152 202 153

L204 153

L204 152

C204 151 205 148 207 146

C208 143 213 136 216 130

C219 123 224 114 227 110

C230 106 233 101 235 100

C238 94 250 80 254 77

C260 73 261 71 260 67

C260 65 259 63 258 62

C256 59 247 54 244 54

C243 54 242 54 241 53

C238 50 212 48 195 48

C172 49 162 51 148 57

C143 58 138 60 137 61

C136 61 132 62 129 64

C126 65 123 66 122 66

C121 66 118 67 116 68

C108 71 99 72 91 70

C87 70 81 69 77 69

C70 69 70 68 68 65

C67 63 66 60 66 59

C65 58 64 55 62 52

C60 49 59 48 57 48

C52 48 50 50 50 57

C50 60 50 63 51 64

C51 65 53 67 53 69

C54 71 56 75 58 76

C61 80 63 83 67 93

C69 97 73 103 75 107

C79 112 85 120 89 125

C89 126 92 130 94 133

C96 136 99 141 101 143

C102 145 104 148 106 151

C109 155 114 165 121 179

C124 185 129 188 140 188

L147 188

L145 190

L143 192

L144 192

C147 192 150 193 151 194

C151 194 152 197 152 199

C152 202 153 205 154 206

C155 207 156 208 156 209

L156 210

L157 210

C159 209 161 212 162 214

C162 214 162 216 162 217

L162 218

L164 218

C166 218 167 218 168 219

L168 220

L170 220

C172 219 173 219 174 219

Z

M277 148

C277 147 276 145 276 144

L274 143

L273 144

C271 145 270 150 272 151

C272 152 273 152 274 152

L277 152

L277 148

Z

M275 126

L278 125

L278 124

L278 123

L276 123

C274 123 272 123 271 124

L268 125

L268 126

L268 127

L270 127

C271 127 273 127 275 126

Z

"/>

<path fill="#294551" stroke="none" d="
M0 220

L0 0

L220 0

L440 0

L440 220

L440 440

L220 440

L0 440

L0 220

Z

M155 250

C156 237 159 226 161 224

C162 223 164 222 166 222

C167 222 169 221 170 221

C171 220 172 219 174 219

L176 219

L176 217

L176 216

L178 216

L179 217

L180 215

C180 213 181 211 180 210

L180 208

L182 207

C183 206 184 205 184 203

C184 202 184 201 185 201

L186 200

L187 204

L187 208

L190 202

C192 199 193 196 193 195

L193 193

L191 194

L189 194

L189 193

C189 192 190 191 190 190

L191 189

L189 185

C183 176 182 166 186 157

C189 151 193 149 197 151

C199 152 201 152 202 153

L204 153

L204 152

C204 151 205 148 207 146

C208 143 213 136 216 130

C219 123 224 114 227 110

C230 106 233 101 235 100

C239 93 250 81 256 76

C259 73 262 71 262 71

L263 71

L263 73

C263 73 266 77 270 82

C280 93 282 97 282 101

C281 103 280 105 279 106

C277 107 278 110 281 117

C282 121 284 128 285 134

C286 147 288 150 295 157

C302 164 302 166 298 172

C294 178 292 181 290 193

C289 198 286 205 285 209

C280 219 273 223 256 225

C250 226 244 227 243 227

L241 228

L241 229

C241 229 243 229 245 228

C246 228 253 227 259 226

C271 225 271 225 277 220

C282 216 284 214 286 209

C288 205 290 202 291 202

L292 202

L292 196

L292 190

L293 190

L294 190

L294 187

C294 184 297 178 298 178

L299 178

L299 177

C299 176 299 174 300 173

L302 170

L303 170

L304 171

L303 166

C303 164 303 161 303 161

C303 160 303 160 303 159

C303 159 301 157 299 156

C295 153 293 149 293 146

C293 145 292 144 292 143

L291 142

L291 143

L292 145

L291 145

L290 145

L290 142

L291 139

L290 140

L289 140

L287 136

C287 134 286 132 286 130

L287 128

L288 128

L289 128

L289 126

C288 125 288 123 288 122

L288 121

L286 121

C283 122 282 117 282 107

C283 95 283 95 271 82

C267 78 264 73 264 73

L264 71

L265 71

L266 70

L265 68

C265 67 264 66 264 64

L265 62

L263 62

L262 61

L263 59

L263 57

L262 57

L261 58

L261 57

L261 56

L260 56

L258 56

L258 55

C258 54 257 53 255 53

C253 52 251 50 250 49

L249 48

L248 49

L248 50

L247 50

C246 50 244 49 242 48

C240 48 239 47 238 48

C237 48 235 48 232 47

L227 47

L228 46

L229 45

L226 45

C224 45 221 45 220 45

C218 45 210 45 202 45

L187 45

L188 46

L189 47

L185 47

C183 48 178 48 174 49

C160 50 157 51 143 57

C141 58 138 59 136 60

C135 60 132 61 131 62

C129 63 127 64 126 64

C125 65 123 65 121 65

C120 65 117 66 116 67

C114 68 109 69 105 70

C99 71 97 71 91 69

C88 69 81 68 77 68

C70 68 70 68 69 65

C68 63 67 60 67 59

C66 58 65 54 63 52

C60 48 59 47 57 47

C52 47 49 50 49 57

C49 60 49 63 50 64

C50 65 52 67 52 69

C53 71 56 75 57 77

C59 79 60 81 60 81

L59 83

L60 83

L61 83

L62 84

C62 85 64 88 65 91

C69 99 69 99 74 106

C81 115 87 124 87 125

C87 125 88 127 90 129

C92 131 93 133 93 134

C93 134 94 136 96 138

C98 139 99 141 99 141

C99 142 101 145 103 148

C109 157 113 164 113 167

L114 170

L114 170

L115 170

L116 171

C116 172 118 175 119 178

C122 185 127 188 135 189

C137 190 140 191 142 192

L146 194

L145 194

L144 194

L145 196

L146 197

L148 197

L149 196

L150 197

C151 198 151 201 152 203

C152 206 153 208 155 210

C157 211 157 213 157 215

L157 218

L158 218

L159 218

L158 221

L158 223

L159 223

L160 223

L159 225

C157 228 154 247 154 253

C154 256 153 258 152 259

L151 262

L153 260

C154 258 155 256 155 250

Z

M289 212

C289 211 289 211 288 211

L287 210

L287 211

L287 212

L288 212

L289 212

L289 212

Z

M277 148

C277 147 276 145 276 144

L274 143

L273 144

C271 145 270 150 272 151

C272 152 273 152 274 152

L277 152

L277 148

Z

M275 126

L278 125

L278 124

L278 123

L276 123

C274 123 272 123 271 124

L268 125

L268 126

L268 127

L270 127

C271 127 273 127 275 126

Z

"/>

<path fill="#60523e" stroke="none" d="
M152 425

C150 425 147 424 144 424

C133 424 127 418 123 402

C120 390 119 383 119 366

C119 350 120 336 122 327

C123 325 123 321 124 318

C124 316 125 314 125 313

C126 313 126 311 126 310

C126 308 126 306 127 306

C128 305 128 304 128 303

C128 301 128 300 129 300

C130 299 130 298 130 297

C130 297 131 294 132 292

C133 289 134 287 134 287

C134 286 136 282 139 278

C141 273 144 268 145 267

C146 266 148 263 150 261

C155 258 155 258 155 250

C157 228 160 222 166 222

C168 222 169 221 170 221

C171 220 172 219 174 219

L176 219

L176 217

L176 216

L178 216

L179 217

L180 215

C180 213 181 211 180 210

L180 208

L182 207

C183 206 184 205 184 203

C184 202 184 201 185 201

L186 200

L187 204

L187 208

L190 202

C192 199 193 196 193 195

L193 193

L191 194

L189 194

L189 193

C189 192 190 191 190 190

L191 189

L189 185

C183 176 182 166 186 157

C189 151 193 149 197 151

C199 152 201 152 202 153

L204 153

L204 152

C204 151 205 148 207 146

C208 143 213 136 216 130

C219 123 224 114 227 110

C230 106 233 101 235 100

C239 93 250 81 256 76

C259 73 262 71 262 71

L263 71

L263 73

C263 73 266 77 270 82

C280 93 282 97 282 101

C281 103 280 105 279 106

C277 107 278 110 281 117

C282 121 284 128 285 134

C286 147 288 150 295 157

C302 164 302 166 298 172

C294 178 292 181 290 193

C287 205 283 214 278 218

C272 222 267 224 254 225

C244 227 243 227 239 230

C238 232 236 234 236 234

L236 236

L239 237

C244 239 247 243 246 248

C245 256 243 260 234 274

L233 275

L235 277

C236 278 238 280 239 282

C241 284 245 289 250 295

C257 303 280 337 280 338

C280 339 281 341 283 343

C285 346 286 348 286 349

C286 349 287 350 287 351

C289 353 300 373 303 382

C309 396 310 398 310 405

C311 411 310 412 308 416

C307 419 305 421 304 422

C303 422 301 422 299 423

C297 423 271 424 231 424

C196 425 164 425 160 426

C156 426 153 426 152 425

Z

M277 148

C277 147 276 145 276 144

L274 143

L273 144

C271 145 270 150 272 151

C272 152 273 152 274 152

L277 152

L277 148

Z

M275 126

L278 125

L278 124

L278 123

L276 123

C274 123 272 123 271 124

L268 125

L268 126

L268 127

L270 127

C271 127 273 127 275 126

Z

"/>

<path fill="#40646e" stroke="none" d="
M152 425

C150 425 147 424 144 424

C133 424 127 418 123 402

C120 390 119 383 119 366

C119 350 120 336 122 327

C123 325 123 321 124 318

C124 316 125 314 125 313

C126 313 126 311 126 310

C126 308 126 306 127 306

C128 305 128 304 128 303

C128 301 128 300 129 300

C130 299 130 298 130 297

C130 297 131 294 132 292

C133 289 134 287 134 287

C134 286 136 282 139 278

C141 273 144 268 145 267

C146 266 148 263 150 261

C155 258 155 258 155 250

C156 238 159 226 160 224

C162 223 168 221 175 220

C181 220 184 217 189 208

C190 204 192 201 192 201

C192 200 193 198 195 196

C199 191 198 189 194 188

C193 187 190 186 189 185

C187 183 183 174 183 169

C183 164 187 154 190 152

C193 150 195 149 200 152

L203 154

L204 152

L204 151

L205 151

L206 151

L206 153

C205 156 210 162 215 165

C217 166 219 167 219 167

C220 167 224 159 224 158

C224 155 230 145 233 142

C237 139 248 130 254 127

C257 125 269 115 273 112

L276 109

L277 109

C279 111 284 126 285 135

C286 147 288 150 295 157

C302 164 302 166 298 172

C294 178 292 181 290 193

C287 205 283 214 278 218

C272 222 267 224 254 225

C244 227 243 227 239 230

C238 232 236 234 236 234

L236 236

L239 237

C244 239 247 243 246 248

C245 256 243 260 234 274

L233 275

L235 277

C236 278 238 280 239 282

C241 284 245 289 250 295

C257 303 280 337 280 338

C280 339 281 341 283 343

C285 346 286 348 286 349

C286 349 287 350 287 351

C289 353 300 373 303 382

C309 396 310 398 310 405

C311 411 310 412 308 416

C307 419 305 421 304 422

C303 422 301 422 299 423

C297 423 271 424 231 424

C196 425 164 425 160 426

C156 426 153 426 152 425

Z

M277 148

C277 147 276 145 276 144

L274 143

L273 144

C271 145 270 150 272 151

C272 152 273 152 274 152

L277 152

L277 148

Z

M275 127

L279 126

L279 124

L279 123

L277 122

C275 122 269 123 268 125

L266 126

L267 127

C267 128 270 128 275 127

Z

"/>

<path fill="#5c8589" stroke="none" d="
M205 422

C201 417 197 411 197 410

C197 409 196 408 195 407

C194 406 193 405 193 405

C193 404 189 395 185 386

C176 369 175 365 173 357

C173 355 173 353 172 352

C170 347 169 342 169 339

C168 337 167 333 166 330

C164 323 162 313 161 304

C161 300 160 297 160 297

C159 296 159 294 159 292

C159 290 159 288 158 288

C158 287 157 284 157 281

C156 277 156 272 155 269

L155 264

L153 264

L151 265

L152 263

C152 262 153 260 153 259

C154 258 155 254 155 250

C156 239 159 226 160 224

C162 223 168 221 175 220

C181 220 184 217 189 208

C190 204 192 201 192 201

C192 200 193 198 195 196

C199 191 198 189 194 188

C193 187 190 186 189 185

C187 183 183 174 183 169

C183 164 187 154 190 152

C193 150 195 149 200 152

L203 154

L204 152

L204 151

L205 151

L206 151

L206 153

C205 156 210 162 215 165

C217 166 219 167 219 167

C220 167 224 159 224 158

C224 155 230 145 233 142

C237 139 248 130 254 127

C257 125 269 115 273 112

L276 109

L277 109

C279 111 284 126 285 135

C286 147 288 150 295 157

C302 164 302 166 298 172

C294 178 292 181 290 193

C287 205 283 214 278 218

C272 222 267 224 254 225

C243 227 243 227 239 231

C237 233 235 235 235 235

L235 236

L238 236

C240 237 243 238 244 240

C247 243 247 244 246 247

C245 256 243 260 234 274

L233 275

L235 277

C236 278 238 280 239 282

C241 284 245 289 250 295

C257 303 280 337 280 338

C280 339 281 341 283 343

C285 346 286 348 286 349

C286 349 287 350 287 351

C289 353 300 373 303 382

C309 396 310 398 310 405

C311 411 310 412 308 417

C307 419 305 422 304 422

C304 422 301 422 299 423

C296 424 280 424 251 424

C208 425 208 425 205 422

Z

M228 267

C231 263 238 252 238 249

L238 248

L237 248

C235 248 230 253 230 254

C230 255 228 258 226 261

C224 264 222 268 222 269

L223 270

L224 270

C225 270 227 269 228 267

Z

M218 265

C219 264 222 259 224 254

C228 248 229 244 229 243

L228 241

L227 241

C226 241 222 246 218 256

C215 261 213 266 214 267

L214 268

L216 268

C216 268 217 267 218 265

Z

M208 262

C210 260 216 245 216 242

L216 240

L214 240

L212 240

L211 244

C210 246 208 249 208 250

C206 253 204 259 204 262

L204 264

L205 264

C206 264 207 263 208 262

Z

M202 252

C203 248 204 242 204 241

L204 239

L203 239

C199 239 198 242 195 254

C194 258 194 260 195 261

C198 264 199 262 202 252

Z

M188 257

C189 256 190 253 190 250

C190 248 191 245 192 242

C194 240 194 238 193 235

L193 232

L191 232

C189 233 184 246 184 250

C184 252 184 253 183 254

C182 254 182 255 182 256

L182 258

L183 258

C186 259 187 259 188 257

Z

M178 252

C179 251 180 246 181 242

C182 238 183 234 183 232

L182 230

L180 230

L178 230

L178 232

C177 233 176 239 175 244

C174 250 173 254 174 255

L174 256

L176 256

C177 256 178 254 178 252

Z

M169 248

C169 245 170 241 171 239

C171 237 172 234 172 232

L172 228

L170 227

C168 226 166 229 166 233

C166 235 165 239 164 241

C163 247 163 252 164 253

C164 254 165 254 166 254

L168 253

L169 248

Z

M277 148

C277 147 276 145 276 144

L274 143

L273 144

C271 145 270 150 272 151

C272 152 273 152 274 152

L277 152

L277 148

Z

M275 127

L279 126

L279 124

L279 123

L277 122

C275 122 269 123 268 125

L266 126

L267 127

C267 128 270 128 275 127

Z

"/>

<path fill="#e6936e" stroke="none" d="
M226 233

C223 233 217 231 213 231

C196 228 186 226 185 224

C183 222 183 218 186 216

L188 214

L188 213

C187 212 188 209 189 206

C191 203 192 201 192 201

C192 200 193 198 195 196

C199 191 198 189 194 188

C193 187 190 186 189 185

C187 183 183 174 183 169

C183 164 187 154 190 152

C193 150 195 149 200 152

L203 154

L204 152

L204 151

L205 151

L206 151

L206 153

C205 156 210 162 215 165

C217 166 219 167 219 167

C220 167 224 159 224 158

C224 155 230 145 233 142

C237 139 248 130 254 127

C257 125 269 115 273 112

L276 109

L277 109

C279 111 284 126 285 135

C286 147 288 150 295 157

C302 164 302 166 298 172

C294 178 292 181 290 193

C287 205 283 214 278 218

C272 222 267 224 254 225

C247 226 242 227 241 228

C233 234 232 235 231 235

C231 235 228 234 226 233

Z

M277 148

C277 147 276 145 276 144

L274 143

L273 144

C271 145 270 150 272 151

C272 152 273 152 274 152

L277 152

L277 148

Z

M275 127

L279 126

L279 124

L279 123

L277 122

C275 122 269 123 268 125

L266 126

L267 127

C267 128 270 128 275 127

Z

"/>

<path fill="#f5bea1" stroke="none" d="
M226 233

C223 233 217 231 212 230

C207 230 199 228 195 227

L186 225

L188 225

C189 225 193 226 197 227

C209 229 213 230 215 230

L217 230

L217 229

L216 228

L217 228

L219 228

L219 227

C219 227 218 225 216 224

C213 221 206 211 206 209

C206 208 200 198 199 197

L198 197

L199 194

C199 192 199 190 198 189

C198 188 198 186 197 185

L197 183

L198 183

C198 183 199 182 200 180

C200 179 202 177 203 176

C204 176 206 174 206 173

C207 171 208 169 208 169

L209 168

L209 166

L208 164

L210 164

C211 163 213 164 215 165

C217 166 218 167 219 167

C220 167 224 160 224 158

C224 155 230 145 233 142

C236 139 246 132 254 127

C255 126 260 122 265 118

C271 113 276 110 276 110

C279 110 283 123 285 135

C286 140 287 145 288 147

C288 149 289 151 289 152

L289 153

L288 151

L287 150

L288 152

C288 155 288 156 288 162

C287 166 287 167 288 168

C289 169 290 170 290 171

L290 173

L291 172

C292 172 293 171 293 171

L294 171

L294 173

L295 176

L297 172

C301 166 301 164 297 159

L294 156

L297 159

C302 164 302 166 298 172

C294 178 292 181 290 193

C287 205 283 214 278 218

C272 222 267 224 254 225

C247 226 242 227 241 228

C233 234 232 235 231 235

C231 235 228 234 226 233

Z

M280 204

L280 203

L274 200

C271 199 267 198 267 199

L266 200

L267 201

C268 202 274 205 277 205

L280 205

L280 204

Z

M264 194

C268 192 273 186 275 181

C276 179 276 176 276 171

C275 166 274 164 271 161

C267 157 262 155 254 155

C246 155 241 157 236 165

C232 170 232 171 232 178

C232 187 234 191 236 191

C237 191 238 192 239 193

C244 197 246 198 253 197

C257 197 261 195 264 194

Z

M277 148

C277 147 276 145 276 144

L274 143

L273 144

C271 145 270 150 272 151

C272 152 273 152 274 152

L277 152

L277 148

Z

M275 127

L279 126

L279 124

L279 123

L277 122

C275 122 269 123 268 125

L266 126

L267 127

C267 128 270 128 275 127

Z

"/>

</svg>

